<?xml version="1.0" standalone="no"?><!DOCTYPE svg PUBLIC "-//W3C//DTD SVG 1.1//EN" "http://www.w3.org/Graphics/SVG/1.1/DTD/svg11.dtd"><svg t="1573200679135" class="icon" viewBox="0 0 1024 1024" version="1.1" xmlns="http://www.w3.org/2000/svg" p-id="1211" xmlns:xlink="http://www.w3.org/1999/xlink" width="28" height="28"><defs><style type="text/css"></style></defs><path d="M626.904 783.762c71.71-45.302 115.85-132.588 109.836-217.198-0.39-5.508-5.176-9.676-10.684-9.266a10 10 0 0 0-9.266 10.684c5.506 77.47-34.908 157.39-100.57 198.872-19.494 12.316-41.482 21.776-62.748 30.924-17.86 7.684-36.15 15.564-53.542 25.302a127.52 127.52 0 0 0-4.008-0.04c-0.054-0.528-0.124-1.056-0.172-1.584-3.748-39.91 4.864-81.256 13.192-121.242 10.308-49.492 20.966-100.666 9.182-151.232a10 10 0 0 0-19.478 4.542c10.784 46.266 1.038 93.066-9.282 142.612-8.61 41.342-17.508 84.088-13.546 126.9-1.342 0-2.682 0.024-4.022 0.066-50.546-13.704-96.146-45.022-126.796-87.55-33.676-46.726-48.816-106.292-41.538-163.428a10 10 0 0 0-19.84-2.528c-7.912 62.106 8.544 126.856 45.152 177.648 26.172 36.314 62.376 65.108 103.332 83.012-35.34 11.832-66.056 37.442-82.486 71.354-7.442 15.36-10.356 36.02 3.786 47.934 5.556 4.68 13.22 7.164 22.162 7.182h0.11c21.894 0 40.168-13.096 52.014-22.956a232.068 232.068 0 0 0 56-68.68c13.936 50.098 42.148 95.43 67.688 136.454a9.996 9.996 0 0 0 13.776 3.204 10 10 0 0 0 3.204-13.774c-14.888-23.914-30.716-49.35-43.854-76.152a231.06 231.06 0 0 0 20.136 18.948c11.846 9.86 30.118 22.956 52.014 22.956h0.11c8.942-0.018 16.604-2.502 22.162-7.184 14.14-11.914 11.228-32.574 3.786-47.934-17.406-35.926-50.838-62.562-88.822-73.338 8.934-4.14 18.114-8.092 27.488-12.124 21.974-9.45 44.698-19.228 65.524-32.384z m-212.006 134.642c-15.054 12.528-27.522 18.31-39.29 18.328-4.122-0.008-7.43-0.888-9.318-2.478-5.006-4.218-2.822-15.356 1.326-23.918 18.466-38.114 59.808-64.656 102.106-67.104 0.744 0.192 1.486 0.39 2.23 0.574a212.108 212.108 0 0 1-57.054 74.598z m189.814-8.07c4.148 8.562 6.334 19.7 1.328 23.916-1.888 1.59-5.198 2.47-9.318 2.48h-0.072c-11.73 0-24.196-5.826-39.218-18.328a212.074 212.074 0 0 1-56.24-72.864c1.192-0.734 2.394-1.454 3.598-2.166 41.53 3.224 81.776 29.506 99.922 66.962z" fill="#9EA5FF" p-id="1212"></path><path d="M994.774 350.072c-34.506 128.774-190.87 227.878-263.038 208.54-72.168-19.338-158.034-183.346-123.528-312.12s141.734-182.818 248.482-154.214 172.588 129.02 138.084 257.794z" fill="#6770E6" p-id="1213"></path><path d="M736.588 540.504c-70.624-18.924-154.342-176.382-125.56-303.794a289.376 289.376 0 0 0-2.82 9.782c-34.506 128.774 51.36 292.782 123.528 312.12 72.168 19.338 228.534-79.766 263.038-208.54 0.888-3.314 1.694-6.606 2.45-9.882-38.782 124.734-190.014 219.236-260.636 200.314z" fill="#5A62C9" p-id="1214"></path><path d="M846.984 128.494c101.268 27.134 165.708 118.904 142.598 238.2 1.946-5.48 3.69-11.022 5.19-16.622 34.506-128.776-31.338-229.192-138.084-257.794-106.748-28.602-213.978 25.44-248.482 154.214-1.5 5.6-2.758 11.27-3.816 16.99 39.634-114.866 141.326-162.122 242.594-134.988z" fill="#8F95E6" p-id="1215"></path><path d="M746.928 576.034l-1.516-0.406-3.052-15.076c-3.71-0.396-7.26-1.038-10.624-1.94s-6.762-2.12-10.172-3.632l-10.18 11.53-1.516-0.406a8.302 8.302 0 0 0-4.298 16.042l37.062 9.93a8.304 8.304 0 0 0 4.296-16.042z" fill="#5A62C9" p-id="1216"></path><path d="M29.226 350.072c34.506 128.774 190.87 227.878 263.038 208.54 72.168-19.338 158.034-183.346 123.528-312.12s-141.734-182.818-248.48-154.214-172.59 129.02-138.086 257.794z" fill="#69EBFC" p-id="1217"></path><path d="M287.412 540.504c70.624-18.924 154.342-176.382 125.56-303.794 0.984 3.216 1.932 6.468 2.82 9.782 34.506 128.774-51.36 292.782-123.528 312.12-72.168 19.338-228.534-79.766-263.038-208.54a290.426 290.426 0 0 1-2.45-9.882c38.784 124.734 190.014 219.236 260.636 200.314z" fill="#60D6E6" p-id="1218"></path><path d="M177.016 128.494C75.748 155.63 11.308 247.4 34.418 366.694a219.104 219.104 0 0 1-5.19-16.622C-5.278 221.298 60.564 120.88 167.31 92.278c106.748-28.602 213.978 25.44 248.482 154.214 1.5 5.6 2.758 11.27 3.816 16.99-39.632-114.866-141.324-162.122-242.592-134.988z" fill="#A1F1FC" p-id="1219"></path><path d="M277.072 576.034l1.516-0.406 3.052-15.076a69.52 69.52 0 0 0 10.624-1.94 69.566 69.566 0 0 0 10.172-3.632l10.18 11.53 1.516-0.406a8.302 8.302 0 0 1 4.298 16.042l-37.062 9.93a8.306 8.306 0 0 1-4.296-16.042z" fill="#60D6E6" p-id="1220"></path><path d="M725.472 245.256c0 142.226-133.764 287.522-213.472 287.522s-213.472-145.296-213.472-287.522S394.102 17.734 512 17.734s213.472 85.298 213.472 227.522z" fill="#FF8354" p-id="1221"></path><path d="M512 512.778c-78 0-207.746-139.14-213.268-278.38a308.57 308.57 0 0 0-0.206 10.86c0 142.226 133.766 287.522 213.472 287.522 79.706 0 213.472-145.296 213.472-287.522 0-3.66-0.08-7.274-0.204-10.86C719.744 373.64 590 512.778 512 512.778z" fill="#E0734A" p-id="1222"></path><path d="M512 57.734c111.844 0 203.586 76.774 212.712 206.084 0.492-6.186 0.76-12.376 0.76-18.562C725.472 103.032 629.898 17.734 512 17.734c-117.898 0-213.472 85.296-213.472 227.522 0 6.186 0.27 12.376 0.76 18.562C308.412 134.508 400.154 57.734 512 57.734z" fill="#FFAC8C" p-id="1223"></path><path d="M532.466 546.536h-1.674l-7.306-14.692a74.28 74.28 0 0 1-11.484 0.934c-3.716 0-7.552-0.318-11.486-0.934l-7.306 14.692h-1.674a8.86 8.86 0 0 0 0 17.716h40.932a8.86 8.86 0 1 0-0.002-17.716z" fill="#E0734A" p-id="1224"></path></svg>