<?xml version="1.0" standalone="no"?><!DOCTYPE svg PUBLIC "-//W3C//DTD SVG 1.1//EN" "http://www.w3.org/Graphics/SVG/1.1/DTD/svg11.dtd"><svg t="1573200933875" class="icon" viewBox="0 0 1024 1024" version="1.1" xmlns="http://www.w3.org/2000/svg" p-id="6130" xmlns:xlink="http://www.w3.org/1999/xlink" width="28" height="28"><defs><style type="text/css"></style></defs><path d="M385.094993 176.551207h264.82681v70.620482h-264.82681z" fill="#A4E869" p-id="6131"></path><path d="M685.232044 176.551207h-335.447293a70.620483 70.620483 0 0 1 70.620483-70.620483h194.206327a70.620483 70.620483 0 0 1 70.620483 70.620483z" fill="#88C057" p-id="6132"></path><path d="M579.30132 52.965362V0h-123.585845v52.965362h11.528794c13.13541 0 23.781448 10.646038 23.781448 23.781448V105.930724h52.965362V76.74681c0-13.13541 10.646038-23.781448 23.781447-23.781448h11.528794z" fill="#BDC3C7" p-id="6133"></path><path d="M326.268131 635.584344h377.131032a1023.820447 1023.820447 0 0 1 0.459033-35.310241H325.809097c0.353102 11.775965 0.529654 23.534276 0.459034 35.310241zM324.131861 565.175723c0.370758-0.017655 0.68855-0.211861 1.076962-0.211862h379.267303c0.388413 0 0.706205 0.194206 1.076962 0.211862 0.776825-11.881896 1.765512-23.728482 2.96606-35.522103h-387.353347c1.200548 11.811276 2.189235 23.640207 2.96606 35.522103zM321.995591 741.515068c-0.617929 0-1.129928-0.282482-1.730201-0.353102a1013.792339 1013.792339 0 0 1-3.65461 29.642947l-1.006342 6.020396H713.798029l-0.72386-6.020396a905.619415 905.619415 0 0 1-3.65461-29.642947c-0.600274 0.07062-1.112273 0.353102-1.730202 0.353102H321.995591zM326.091579 670.894585c-0.194206 0-0.370758-0.105931-0.564963-0.10593A982.295604 982.295604 0 0 1 323.513932 706.204827h382.67474a984.608424 984.608424 0 0 1-2.012684-35.416172c-0.194206 0-0.353102 0.105931-0.547308 0.10593H326.091579zM698.649936 247.171689H325.350064a43.255046 43.255046 0 0 0-42.707737 49.981647l22.54559 127.187489c1.023997-0.176551 1.942063-0.617929 3.019025-0.617929H720.330424c0.882756 0 1.659581 0.370758 2.507027 0.511998l18.502566-127.081558A43.219735 43.219735 0 0 0 698.649936 247.171689zM312.638377 812.135551c-1.023997 0-1.906753-0.406068-2.877784-0.582619l-13.241341 78.759493c-10.540107 73.833715 49.78744 139.087041 124.150809 133.331471a1290.147943 1290.147943 0 0 1 182.571603-1.571306c74.416334 4.784538 134.549675-59.515412 124.009567-133.331471l-9.268938-77.011636c-0.706205 0.07062-1.324134 0.406068-2.065649 0.406068H312.638377zM314.47451 476.688258c0.953377 6.002741 1.677236 12.093758 2.507027 18.131809 0.812136-0.105931 1.535995-0.476688 2.383441-0.476688h390.972648c0.847446 0 1.571306 0.370758 2.383441 0.476688 0.829791-6.038051 1.553651-12.129068 2.507027-18.131809l2.577648-17.655121h-406.420878l3.089646 17.655121z" fill="#88C057" p-id="6134"></path><path d="M308.224597 423.722896c-1.076962 0-2.012684 0.423723-3.019025 0.617929L311.349554 459.033137h406.420877l5.06702-34.798243c-0.847446-0.141241-1.606616-0.511998-2.489372-0.511998H308.224597zM319.364978 494.343379c-0.847446 0-1.571306 0.370758-2.365786 0.476688 1.588961 11.546449 2.983715 23.163518 4.166609 34.833553h387.371002c1.182893-11.670035 2.577648-23.269449 4.166609-34.833553-0.812136-0.105931-1.535995-0.476688-2.383442-0.476688H319.364978zM325.208823 564.963861c-0.388413 0-0.706205 0.194206-1.076962 0.211862 0.75917 11.670035 1.324134 23.37538 1.677236 35.09838h378.066754c0.353102-11.723 0.918066-23.41069 1.677237-35.09838-0.370758-0.017655-0.68855-0.211861-1.076962-0.211862H325.208823zM325.50896 670.788655c0.194206 0 0.370758 0.105931 0.564964 0.10593h377.537101c0.194206 0 0.353102-0.105931 0.547308-0.10593A1016.228746 1016.228746 0 0 1 703.399163 635.584344H326.268131a935.897947 935.897947 0 0 1-0.759171 35.204311zM320.283045 741.161966c0.600274 0.052965 1.112273 0.353102 1.730202 0.353102h385.693766c0.617929 0 1.129928-0.282482 1.730201-0.353102A992.147161 992.147161 0 0 1 706.206327 706.204827H323.513932c-0.882756 11.705345-1.942063 23.357725-3.230887 34.957139zM309.760593 811.552932c0.971032 0.176551 1.853788 0.582619 2.877784 0.582619H715.916644c0.741515 0 1.359444-0.335447 2.083304-0.423723L713.798029 776.825309H315.604438l-5.843845 34.727623z" fill="#A4E869" p-id="6135"></path></svg>