<?xml version="1.0" standalone="no"?><!DOCTYPE svg PUBLIC "-//W3C//DTD SVG 1.1//EN" "http://www.w3.org/Graphics/SVG/1.1/DTD/svg11.dtd"><svg t="1573200948594" class="icon" viewBox="0 0 1024 1024" version="1.1" xmlns="http://www.w3.org/2000/svg" p-id="6902" xmlns:xlink="http://www.w3.org/1999/xlink" width="28" height="28"><defs><style type="text/css"></style></defs><path d="M460.435727 437.339162a15.027222 15.027222 0 0 0-20.105097-1.038018c-31.501258 25.59377-64.102656 44.743009-96.898432 56.91067a15.025218 15.025218 0 0 0-6.029725 4.132035 974.296645 974.296645 0 0 0-9.716896 11.147678c-52.273653 60.950526-95.349419 126.712409-128.026965 195.462102-41.069866 86.398012-65.719801 177.681525-73.262468 271.313604-1.999889 24.778184 16.536157 46.564551 41.312337 48.562436 1.204342 0.098191 2.436739 0.146284 3.663123 0.146284 23.309328-0.002004 43.035688-18.21943 44.905324-41.466637 6.630895-82.280004 28.264965-162.604205 64.303046-238.744269 29.046485-61.373348 67.493249-120.273888 114.262198-175.058424a841.570542 841.570542 0 0 1 5.925522-6.859339 15.015199 15.015199 0 0 0 2.819483-4.801336c12.117564-33.743619 31.593438-67.254786 57.880556-99.603693a15.023215 15.023215 0 0 0-1.032006-20.103093z" fill="#008950" p-id="6903"></path><path d="M440.33063 436.303148a405.093757 405.093757 0 0 1-28.599616 21.249322c-63.439366 87.710564-156.806931 228.231826-179.074233 275.283324-36.036077 76.140064-57.672151 156.464265-64.303045 238.744269-1.43479 17.834682-13.394046 32.673538-29.403179 38.635131 7.358309 7.616812 17.397832 12.700698 28.757924 13.616479 1.204342 0.098191 2.436739 0.146284 3.663123 0.146284 23.309328-0.002004 43.035688-18.21943 44.905324-41.466637 6.630895-82.280004 28.264965-162.604205 64.303046-238.744269 29.046485-61.373348 67.493249-120.273888 114.262198-175.058424a841.570542 841.570542 0 0 1 5.925522-6.859339 15.015199 15.015199 0 0 0 2.819483-4.801336c12.117564-33.743619 31.593438-67.254786 57.880556-99.603693a15.025218 15.025218 0 0 0-1.036014-20.103093 15.017203 15.017203 0 0 0-20.101089-1.038018z" fill="#00723F" p-id="6904"></path><path d="M868.873987 383.049589c21.600004-17.852717 32.425055-45.037581 27.838135-73.68529-5.847371-36.513004-38.566999-77.121974-112.865481-81.602687-56.543957-3.400613-107.567178 13.227723-149.552825 35.715453 22.491738-41.983643 39.122078-93.006864 35.715453-149.552825-4.478709-74.298483-45.089683-107.018111-81.60469-112.863477-28.639694-4.588924-55.828566 6.232119-73.683287 27.836131C496.868575 7.298894 469.703749-3.522149 441.033997 1.060763c-36.513004 5.847371-77.121974 38.566999-81.600683 112.863477-3.408629 56.543957 13.225719 107.567178 35.715454 149.552825-41.985647-22.491738-93.026903-39.144121-149.552825-35.715453-74.298483 4.478709-107.018111 45.089683-112.865482 81.602687-4.58692 28.649713 6.234123 55.832574 27.836131 73.68529-21.600004 17.852717-32.423051 45.035577-27.836131 73.683287 5.847371 36.513004 38.566999 77.123978 112.865482 81.602687 56.545961 3.392597 107.567178-13.225719 149.552825-35.715453-22.491738 41.985647-39.124082 93.008868-35.715454 149.552824 4.476706 74.298483 45.087679 107.018111 81.602687 112.865482a81.899264 81.899264 0 0 0 12.965213 1.040022c23.750185 0 45.586649-10.564544 60.722082-28.874149 17.850713 21.600004 45.039585 32.415035 73.683286 27.836131 36.515008-5.845367 77.123978-38.564995 81.604691-112.865482 3.406625-56.545961-13.225719-107.565174-35.715453-149.550821 41.985647 22.491738 93.014879 39.112058 149.552825 35.71345 74.298483-4.476706 107.018111-45.089683 112.865481-81.602687 4.584916-28.649713-6.238131-55.83057-27.840139-73.685291z" fill="#45BF7F" p-id="6905"></path><path d="M670.009269 113.926244C665.53056 39.627761 624.919587 6.908134 588.404579 1.062767c-16.644367-2.667187-32.781748-0.098191-46.899202 6.735097 29.347069 13.666576 56.217322 46.496418 59.812313 106.12838 2.793432 46.376184-13.700643 102.435198-32.132486 144.262537-4.839411 10.985362 4.973672 22.766272 16.650379 19.980856 14.379964-3.430671 29.791934-8.225997 48.456229-14.690568 22.491738-41.985647 39.124082-93.008868 35.717457-149.552825zM670.009269 652.174938c-4.478709 74.298483-45.089683 107.018111-81.60469 112.863478-16.644367 2.667187-32.781748 0.098191-46.899202-6.735097 29.347069-13.666576 56.217322-46.496418 59.812313-106.128381 2.793432-46.376184-13.700643-102.435198-32.132486-144.260533-4.839411-10.985362 4.973672-22.766272 16.650379-19.980855 14.379964 3.430671 29.791934 8.225997 48.456229 14.690567 22.491738 41.983643 39.124082 93.00486 35.717457 149.550821zM868.873987 383.049589c21.600004-17.852717 32.425055-45.037581 27.838135-73.68529-5.847371-36.513004-38.566999-77.121974-112.865481-81.602687-17.143337-1.032007-33.773677-0.212413-49.804852 2.043975 61.022666 9.658783 88.6544 46.30204 93.980758 79.556708 4.58692 28.649713-6.236127 55.832574-27.838135 73.68529 21.602008 17.852717 32.425055 45.035577 27.838135 73.683287-5.326358 33.254668-32.958091 69.899929-93.97675 79.556708 16.029171 2.256388 32.659511 3.075982 49.800844 2.043975 74.298483-4.476706 107.018111-45.089683 112.865481-81.602687 4.58692-28.643701-6.236127-55.824558-27.838135-73.679279z" fill="#00B76C" p-id="6906"></path></svg>