<?xml version="1.0" standalone="no"?><!DOCTYPE svg PUBLIC "-//W3C//DTD SVG 1.1//EN" "http://www.w3.org/Graphics/SVG/1.1/DTD/svg11.dtd"><svg t="1573200907173" class="icon" viewBox="0 0 1024 1024" version="1.1" xmlns="http://www.w3.org/2000/svg" p-id="4601" xmlns:xlink="http://www.w3.org/1999/xlink" width="28" height="28"><defs><style type="text/css"></style></defs><path d="M969.728 411.904l-423.68 59.904-88.32-418.56L664.576 0l284.416 199.168 20.736 212.736z" fill="#CDE7F9" p-id="4602"></path><path d="M806.912 99.584l-186.368 67.84 186.112 130.304 0.256-198.144z" fill="#AAD6F9" p-id="4603"></path><path d="M457.728 53.248l88.32 418.56 423.68-59.904-163.328-114.432-133.888 2.048-51.968-132.096-162.816-114.176z" fill="#70BBEF" p-id="4604"></path><path d="M546.048 471.808l74.496-304.384 186.112 130.304-260.608 174.08zM948.992 199.424l-142.336 98.304 162.816 114.176h0.256l-20.736-212.48z" fill="#94CFF7" p-id="4605"></path><path d="M664.32 0l-43.776 167.424-162.816-113.92v-0.256L664.32 0z" fill="#94CFF7" p-id="4606"></path><path d="M394.496 358.4a332.8 332.8 0 1 0 332.8 332.8 332.8 332.8 0 0 0-332.8-332.8z m0 563.2a230.4 230.4 0 1 1 230.4-230.4 230.4 230.4 0 0 1-230.4 230.4z" fill="#70BBEF" p-id="4607"></path><path d="M144.384 530.688c-2.048-1.536 1.28-8.192 2.304-9.728a294.912 294.912 0 0 1 94.464-93.696c4.608-2.816 13.824-3.84 16.896 0a7.424 7.424 0 0 1-1.792 11.52 707.072 707.072 0 0 0-61.44 44.032c-34.816 29.184-48.64 49.408-50.432 47.872z" fill="#FFFFFF" p-id="4608"></path><path d="M276.224 417.536m-10.752 0a10.752 10.752 0 1 0 21.504 0 10.752 10.752 0 1 0-21.504 0Z" fill="#FFFFFF" p-id="4609"></path></svg>