<?xml version="1.0" standalone="no"?><!DOCTYPE svg PUBLIC "-//W3C//DTD SVG 1.1//EN" "http://www.w3.org/Graphics/SVG/1.1/DTD/svg11.dtd"><svg t="1573201077963" class="icon" viewBox="0 0 1024 1024" version="1.1" xmlns="http://www.w3.org/2000/svg" p-id="10424" xmlns:xlink="http://www.w3.org/1999/xlink" width="28" height="28"><defs><style type="text/css"></style></defs><path d="M671.9 78h-52.3c-9.5 0-18.4 4.9-23.6 12.9-20.1 31.2-55.2 51.9-95.1 51.9s-75-20.7-95.1-51.9c-5.2-8-14-12.9-23.6-12.9h-55.3c-11 0-20 9-20 20 0 0 13 183.4 13 229.8 0 45.3-13 181-13 181 0 11 9 20 20 20h344.9c11 0 20-9 20-20 0 0-13-135.8-13-181 0-46.5 13-229.8 13-229.8 0.1-11-8.9-20-19.9-20z" fill="#FF75AC" p-id="10425"></path><path d="M768.9 923.9l-0.1-0.3c-0.2-4.5-1.1-8.9-2.6-13l-76.3-427.7h-382l-77.5 433.4c-0.5 1.8-0.8 3.6-1.1 5.4l-0.4 2.2h0.2c-0.1 1.3-0.2 2.7-0.2 4 0 24.9 20.2 45.2 45.2 45.2 22 0 40.4-15.8 44.4-36.7 4.7 19.9 22.6 34.6 43.9 34.6 24.9 0 45.2-20.2 45.2-45.2v-2h0.1c0 0.7-0.1 1.3-0.1 2 0 24.9 20.2 45.2 45.2 45.2s45.2-20.2 45.2-45.2v-2h0.1v2c0 24.9 20.2 45.2 45.2 45.2s45.2-20.2 45.2-45.2c0-0.7 0-1.3-0.1-2h0.1v2c0 24.9 20.2 45.2 45.2 45.2s45.2-20.2 45.2-45.2v-2h0.1c0 0.7-0.1 1.3-0.1 2 0 24.9 20.2 45.2 45.2 45.2s45.2-20.2 45.2-45.2c-0.4-0.6-0.4-1.3-0.4-1.9z" fill="#F964A0" p-id="10426"></path><path d="M369.5 493.1l-51.1 443.3c4.7 19.9 22.6 34.6 43.9 34.6 23.1 0 42.1-17.4 44.8-39.7L422 497.6l-52.5-4.5zM768.9 925.9v-2l-0.1-0.3c-0.2-4.5-1.1-8.9-2.6-13l-74.4-416.9L619 486l57.9 451 0.2 0.3c0.9-3.6 1.5-7.5 1.5-11.4v-2h0.1c0 0.7-0.1 1.3-0.1 2 0 6.3 1.3 12.3 3.6 17.8l14.9 18.7c7.5 5.5 16.7 8.7 26.6 8.7 24.9-0.1 45.2-20.3 45.2-45.2z" fill="#F786B9" p-id="10427"></path><path d="M679.9 504h-364c-11 0-20-9-20-20v-15.1c0-11 9-20 20-20h364c11 0 20 9 20 20V484c0 11-9 20-20 20z" fill="#1589FF" p-id="10428"></path><path d="M587.9 931L548 506.6l-60.8-1 8.4 428.5 0.7 3.9c1.1-3.9 1.7-7.9 1.7-12.1v-2h0.1v2c0 24.9 20.2 45.2 45.2 45.2 22.9-0.1 42-17.6 44.6-40.1z" fill="#F786B9" p-id="10429"></path><path d="M535.9 506h-76c-11 0-20-9-20-20v-17.1c0-11 9-20 20-20h76c11 0 20 9 20 20V486c0 11-9 20-20 20z" fill="#4092F4" p-id="10430"></path><path d="M589.6 273m-16.9 0a16.9 16.9 0 1 0 33.8 0 16.9 16.9 0 1 0-33.8 0Z" fill="#FFFFFF" p-id="10431"></path><path d="M463.9 284.8c4.4-5.7 3.3-13.9-2.4-18.2L414 229.9c-5.7-4.4-13.9-3.3-18.2 2.4-4.4 5.7-3.3 13.9 2.4 18.2l33.8 26.1-34.2 26.1c-5.7 4.3-6.8 12.5-2.4 18.2 4.3 5.7 12.5 6.8 18.2 2.4l45.5-34.8c1.7-0.7 3.4-2 4.8-3.7z" fill="#FFFFFF" p-id="10432"></path><path d="M496.6 479.4m-16.9 0a16.9 16.9 0 1 0 33.8 0 16.9 16.9 0 1 0-33.8 0Z" fill="#FFFFFF" p-id="10433"></path></svg>