<?xml version="1.0" standalone="no"?><!DOCTYPE svg PUBLIC "-//W3C//DTD SVG 1.1//EN" "http://www.w3.org/Graphics/SVG/1.1/DTD/svg11.dtd"><svg t="1573201153481" class="icon" viewBox="0 0 1024 1024" version="1.1" xmlns="http://www.w3.org/2000/svg" p-id="13822" xmlns:xlink="http://www.w3.org/1999/xlink" width="28" height="28"><defs><style type="text/css"></style></defs><path d="M192.469195 0.47967c62.644841 0 663.638791 65.075167 663.638791 65.075167l71.854497 190.748585h-639.559381s-287.801721-64.467586-287.801721-127.911876c0-60.502317 129.222973-127.911876 191.867814-127.911876z" fill="#CCCFD1" p-id="13823"></path><path d="M827.583638 62.484951c-46.719813-5.020541-145.179979-15.541293-251.378815-26.541714v220.360185h223.845784l56.057379-190.748585-28.524348-3.069886z" fill="#B7BABC" p-id="13824"></path><path d="M205.995876 242.393005c34.568185 8.698008 65.011211 13.910417 82.407226 13.910417h537.197902c-29.643577-72.973725-158.642704-127.911876-313.352119-127.911876-144.668332 0-266.792196 48.094865-306.253009 114.001459z" fill="#D9DCDD" p-id="13825"></path><path d="M576.204823 131.717254v124.586168h223.845784V218.665352c-42.818501-44.161575-125.033859-76.907016-223.845784-86.948098z" fill="#C2C4C5" p-id="13826"></path><path d="M121.22228 697.119725L698.232753 120.077274a190.972431 190.972431 0 0 1 270.021971 270.053948L391.244251 967.173673A190.972431 190.972431 0 0 1 121.22228 697.119725z" fill="#BF392C" p-id="13827"></path><path d="M319.997336 815.246342l23.471829-23.471829a33.257088 33.257088 0 0 0 0-46.943658 33.257088 33.257088 0 0 0-46.975637 0l-23.471829 23.439851-23.439851-23.439851a33.22511 33.22511 0 0 0-46.975637 46.943658l23.47183 23.471829-23.47183 23.47183a33.22511 33.22511 0 0 0 46.975637 46.943658l23.439851-23.439851 23.471829 23.439851a33.257088 33.257088 0 0 0 46.975637 0 33.257088 33.257088 0 0 0 0-46.943658l-23.471829-23.47183z" fill="#E4E5E5" p-id="13828"></path></svg>