<?xml version="1.0" standalone="no"?><!DOCTYPE svg PUBLIC "-//W3C//DTD SVG 1.1//EN" "http://www.w3.org/Graphics/SVG/1.1/DTD/svg11.dtd"><svg t="1573200975818" class="icon" viewBox="0 0 1024 1024" version="1.1" xmlns="http://www.w3.org/2000/svg" p-id="8360" xmlns:xlink="http://www.w3.org/1999/xlink" width="28" height="28"><defs><style type="text/css"></style></defs><path d="M771.72 624.352a14 14 0 0 0 0.44-28l-52.32-1.672a14 14 0 1 0-0.896 28l52.32 1.672z" fill="#444444" p-id="8361"></path><path d="M792.208 628.04a14 14 0 0 0-19.792-0.632L734.24 663.2a14 14 0 0 0 19.16 20.424l38.176-35.816a14 14 0 0 0 0.632-19.768zM809 635.64a14.176 14.176 0 0 0-14.4 13.544l-1.672 52.32a14 14 0 0 0 13.544 14.4h0.456a14 14 0 0 0 13.984-13.552l1.672-52.32a14 14 0 0 0-13.584-14.392zM846.032 629.76a14 14 0 1 0-20.424 19.16l35.816 38.184a14 14 0 1 0 20.424-19.16z" fill="#444444" p-id="8362"></path><path d="M900.6 600.472l-52.32-1.672a14 14 0 1 0-0.896 28l52.32 1.672h0.456a14 14 0 0 0 0.44-28z" fill="#444444" p-id="8363"></path><path d="M827.336 595.096a14 14 0 0 0 19.792 0.632l38.176-35.816a14 14 0 1 0-19.16-20.424l-38.144 35.824a14 14 0 0 0-0.664 19.784zM810.544 587.504h0.456a14 14 0 0 0 13.984-13.552l1.672-52.328a14 14 0 0 0-13.544-14.4 14.152 14.152 0 0 0-14.4 13.544l-1.672 52.328a14 14 0 0 0 13.504 14.408zM236.088 484.552a14.136 14.136 0 0 0-14.44 13.544l-1.44 44.904a14 14 0 0 0 13.544 14.44h0.456a14 14 0 0 0 13.984-13.552l1.44-44.904a14 14 0 0 0-13.544-14.432zM178.104 514.52a14 14 0 0 0-20.424 19.16l30.736 32.8a14 14 0 1 0 20.424-19.16zM182.976 605.512a14 14 0 0 0 0.44-28l-44.904-1.44a14 14 0 1 0-0.896 28l44.904 1.44zM186.808 616.872l-32.8 30.736a14 14 0 0 0 19.184 20.392l32.8-30.736a14 14 0 0 0-19.16-20.424zM231.48 628.8a13.976 13.976 0 0 0-14.44 13.544l-1.44 44.856a14 14 0 0 0 13.544 14.44h0.456a14 14 0 0 0 13.984-13.552l1.44-44.904a14 14 0 0 0-13.544-14.384zM276.8 619.752a14 14 0 0 0-20.424 19.16l30.736 32.8a14 14 0 0 0 20.424-19.16zM268.848 573.12a13.944 13.944 0 0 0 9.6-3.792l32.8-30.736a14 14 0 1 0-19.248-20.424l-32.8 30.736a14 14 0 0 0 9.6 24.208z" fill="#444444" p-id="8364"></path><path d="M237.496 440.568a152.616 152.616 0 1 0 147.656 157.416 152.616 152.616 0 0 0-147.656-157.416zM229.6 687.656a94.608 94.608 0 1 1 97.6-91.528 94.608 94.608 0 0 1-97.6 91.528z" fill="#6E6E6E" p-id="8365"></path><path d="M232.444063 593.518482m-1.586485 49.654662a49.68 49.68 0 1 0 3.172971-99.309324 49.68 49.68 0 1 0-3.172971 99.309324Z" fill="#E43C53" p-id="8366"></path><path d="M814.064 477.416a134.224 134.224 0 1 0 129.864 138.448 134.224 134.224 0 0 0-129.864-138.448z m-7.2 224.536a90.4 90.4 0 1 1 93.272-87.488 90.4 90.4 0 0 1-93.256 87.488z" fill="#5A5A5A" p-id="8367"></path><path d="M809.882866 612.270335m-1.21605 38.060579a38.08 38.08 0 1 0 2.432101-76.121157 38.08 38.08 0 1 0-2.432101 76.121157Z" fill="#CA3046" p-id="8368"></path><path d="M451.48 621.136L240.328 614.4a22.304 22.304 0 0 1-21.6-23.008 22.304 22.304 0 0 1 20.288-21.504l214.704-19.392z" fill="#FBBE2C" p-id="8369"></path><path d="M809.784 625.6a14 14 0 0 1-12.864-8.472l-68.224-158.616a14 14 0 1 1 25.704-11.056l68.216 158.584a14.008 14.008 0 0 1-12.848 19.536z" fill="#5A5A5A" p-id="8370"></path><path d="M766.672 540.392a27.072 27.072 0 0 1-24-16.36l-25.976-60.352a27.064 27.064 0 1 1 49.704-21.392l25.96 60.344a27.08 27.08 0 0 1-25.712 37.752z" fill="#FD9E27" p-id="8371"></path><path d="M708.24 277.888l46.72 57.312a36.656 36.656 0 0 1-30.48 48.8 62.48 62.48 0 0 1-64.56-38.144 32.08 32.08 0 0 0-16.152-16.8c-29.768-13.744-110.072-48.16-147.936-38.112-46.992 12.472-82.304 60.264-82.304 60.264l-2.576 44.184c-62.832-2.008-129.208-39.08-129.208-39.08l-40-47.872-130.4-25.144 23.456 19.384 14.544 30.752 294.44 164.296-18.984 56.928s0 72.92-13.024 97.552l228.712 7.32s-36.72-201.928 162.584-217.704l50.4-6.696s9.328-73.088-145.232-157.24z" fill="#E43C53" p-id="8372"></path><path d="M413.528 351.16c-38.792 6.4-131.784 5.104-131.784 5.104s66.4 37.072 129.208 39.08zM944 760.112H80a14 14 0 0 1 0-28h864a14 14 0 0 1 0 28z" fill="#5A5A5A" p-id="8373"></path><path d="M708.24 277.888l46.72 57.312a36.656 36.656 0 0 1-30.48 48.8 62.48 62.48 0 0 1-64.56-38.144 32.08 32.08 0 0 0-16.152-16.8C617.752 316.992 553.152 289.2 512 289.088v366.328l128.504 4.112S603.768 457.6 803.072 441.824l50.4-6.696s9.328-73.088-145.232-157.24z" fill="#CA3046" p-id="8374"></path><path d="M724.488 397.992a14 14 0 0 1-12.544-7.768l-16.904-33.952-50.24 18.296a14 14 0 1 1-9.6-26.312l62-22.576a14 14 0 0 1 17.32 6.92l22.48 45.144a14.008 14.008 0 0 1-12.52 20.24z" fill="#444444" p-id="8375"></path><path d="M411.8 652.208l228.712 7.32s-31.92-175.776 125.752-212.104c0 0-153.264-6.232-227.64 21.176-0.008 0 125.568 81.36-126.824 183.608z" fill="#DEECF1" p-id="8376"></path><path d="M538.616 468.6S624.184 524.056 512 600.944v54.472l128.504 4.112s-31.92-175.776 125.752-212.104c0 0-153.264-6.232-227.64 21.176z" fill="#C7E2E7" p-id="8377"></path></svg>